<svg xmlns="http://www.w3.org/2000/svg" viewBox="0 0 24 24">
  <g fill="#C5C5C5" transform="translate(0 4.25) scale(0.1412)">
    <path d="M44.8,27.5C53.5,14.4,68.3,5.9,85,5.9s31.5,8.5,40.3,21.6C135,42,151.4,51.6,170,51.7v-5.9
      c-16.7-0.1-31.4-8.8-40.1-21.8C120.3,9.4,103.6,0,85,0C66.4,0,49.7,9.4,40.1,24C31.5,37,16.7,45.7,0,45.8v5.9
      C18.6,51.6,35,42,44.8,27.5z M44.8,82.5C35,67.9,18.6,58.4,0,58.3v5.9c16.7,0.1,31.5,8.8,40.1,21.9C49.7,100.6,66.4,110,85,110
      c18.6,0,35.3-9.4,44.9-23.9c8.7-13.1,23.4-21.7,40.1-21.9v-5.9c-18.6,0.1-35,9.6-44.8,24.2c-8.7,13.1-23.5,21.6-40.3,21.6
      S53.5,95.6,44.8,82.5z M56.7,60.1V49.9h23.1V26.7h10.3v23.2h23.1v10.2H90.1v23.2H79.9V60.1H56.7z M71.2,92h27.6V68.8H122V41.2H98.8
      V18H71.2v23.2H48v27.6h23.2V92z"/>
  </g>
</svg>
